<mxfile host="app.diagrams.net" agent="Mozilla/5.0 (Macintosh; Intel Mac OS X 10_15_7) AppleWebKit/537.36 (KHTML, like Gecko) Chrome/131.0.0.0 Safari/537.36 Edg/131.0.0.0" version="25.0.3">
  <diagram id="C5RBs43oDa-KdzZeNtuy" name="Page-1">
    <mxGraphModel dx="2584" dy="1087" grid="1" gridSize="10" guides="1" tooltips="1" connect="1" arrows="1" fold="1" page="1" pageScale="1" pageWidth="827" pageHeight="1169" math="0" shadow="0">
      <root>
        <mxCell id="WIyWlLk6GJQsqaUBKTNV-0" />
        <mxCell id="WIyWlLk6GJQsqaUBKTNV-1" parent="WIyWlLk6GJQsqaUBKTNV-0" />
        <mxCell id="bhEaj6wamlyJ2h7lGsD7-3" value="" style="edgeStyle=orthogonalEdgeStyle;rounded=0;orthogonalLoop=1;jettySize=auto;html=1;" parent="WIyWlLk6GJQsqaUBKTNV-1" source="bhEaj6wamlyJ2h7lGsD7-1" target="bhEaj6wamlyJ2h7lGsD7-2" edge="1">
          <mxGeometry relative="1" as="geometry" />
        </mxCell>
        <mxCell id="bhEaj6wamlyJ2h7lGsD7-1" value="查询cash_out_apply表数据" style="rounded=1;whiteSpace=wrap;html=1;fillColor=#d5e8d4;strokeColor=#82b366;" parent="WIyWlLk6GJQsqaUBKTNV-1" vertex="1">
          <mxGeometry x="220" y="390" width="120" height="60" as="geometry" />
        </mxCell>
        <mxCell id="bhEaj6wamlyJ2h7lGsD7-5" value="" style="edgeStyle=orthogonalEdgeStyle;rounded=0;orthogonalLoop=1;jettySize=auto;html=1;" parent="WIyWlLk6GJQsqaUBKTNV-1" source="bhEaj6wamlyJ2h7lGsD7-2" target="bhEaj6wamlyJ2h7lGsD7-4" edge="1">
          <mxGeometry relative="1" as="geometry" />
        </mxCell>
        <mxCell id="bhEaj6wamlyJ2h7lGsD7-2" value="校验风险挑战项是否收集完成" style="rounded=1;whiteSpace=wrap;html=1;fillColor=#d5e8d4;strokeColor=#82b366;" parent="WIyWlLk6GJQsqaUBKTNV-1" vertex="1">
          <mxGeometry x="220" y="530" width="120" height="60" as="geometry" />
        </mxCell>
        <mxCell id="bhEaj6wamlyJ2h7lGsD7-4" value="把提交激活请求订单加入队列" style="rounded=1;whiteSpace=wrap;fillColor=#d5e8d4;strokeColor=#82b366;" parent="WIyWlLk6GJQsqaUBKTNV-1" vertex="1">
          <mxGeometry x="220" y="670" width="120" height="60" as="geometry" />
        </mxCell>
        <mxCell id="3eJRVGEnP6KMk6OrLx9T-1" value="" style="edgeStyle=orthogonalEdgeStyle;rounded=0;orthogonalLoop=1;jettySize=auto;html=1;" parent="WIyWlLk6GJQsqaUBKTNV-1" source="bhEaj6wamlyJ2h7lGsD7-6" target="3eJRVGEnP6KMk6OrLx9T-0" edge="1">
          <mxGeometry relative="1" as="geometry" />
        </mxCell>
        <mxCell id="3eJRVGEnP6KMk6OrLx9T-2" value="消费数据" style="edgeLabel;html=1;align=center;verticalAlign=middle;resizable=0;points=[];" parent="3eJRVGEnP6KMk6OrLx9T-1" vertex="1" connectable="0">
          <mxGeometry x="-0.125" relative="1" as="geometry">
            <mxPoint as="offset" />
          </mxGeometry>
        </mxCell>
        <mxCell id="bhEaj6wamlyJ2h7lGsD7-6" value="rocketmq" style="strokeWidth=2;html=1;shape=mxgraph.flowchart.direct_data;whiteSpace=wrap;fillColor=#d5e8d4;strokeColor=#82b366;" parent="WIyWlLk6GJQsqaUBKTNV-1" vertex="1">
          <mxGeometry x="430" y="670" width="100" height="60" as="geometry" />
        </mxCell>
        <mxCell id="bhEaj6wamlyJ2h7lGsD7-7" style="edgeStyle=orthogonalEdgeStyle;rounded=0;orthogonalLoop=1;jettySize=auto;html=1;entryX=0;entryY=0.5;entryDx=0;entryDy=0;entryPerimeter=0;" parent="WIyWlLk6GJQsqaUBKTNV-1" source="bhEaj6wamlyJ2h7lGsD7-4" target="bhEaj6wamlyJ2h7lGsD7-6" edge="1">
          <mxGeometry relative="1" as="geometry" />
        </mxCell>
        <mxCell id="bhEaj6wamlyJ2h7lGsD7-8" value="生产" style="edgeLabel;html=1;align=center;verticalAlign=middle;resizable=0;points=[];" parent="bhEaj6wamlyJ2h7lGsD7-7" vertex="1" connectable="0">
          <mxGeometry y="3" relative="1" as="geometry">
            <mxPoint y="2" as="offset" />
          </mxGeometry>
        </mxCell>
        <mxCell id="3eJRVGEnP6KMk6OrLx9T-4" value="" style="edgeStyle=orthogonalEdgeStyle;rounded=1;orthogonalLoop=1;jettySize=auto;html=1;curved=0;strokeWidth=1.5;entryX=0.5;entryY=0;entryDx=0;entryDy=0;" parent="WIyWlLk6GJQsqaUBKTNV-1" source="3eJRVGEnP6KMk6OrLx9T-0" target="3eJRVGEnP6KMk6OrLx9T-7" edge="1">
          <mxGeometry relative="1" as="geometry">
            <mxPoint x="480" y="930" as="targetPoint" />
          </mxGeometry>
        </mxCell>
        <mxCell id="3eJRVGEnP6KMk6OrLx9T-0" value="查询cash_out_apply表记录是否存在" style="whiteSpace=wrap;html=1;fillColor=#d5e8d4;strokeColor=#82b366;strokeWidth=2;" parent="WIyWlLk6GJQsqaUBKTNV-1" vertex="1">
          <mxGeometry x="420" y="810" width="120" height="60" as="geometry" />
        </mxCell>
        <mxCell id="3eJRVGEnP6KMk6OrLx9T-10" value="" style="edgeStyle=orthogonalEdgeStyle;shape=connector;curved=0;rounded=1;orthogonalLoop=1;jettySize=auto;html=1;labelBackgroundColor=default;strokeColor=default;strokeWidth=1.5;align=center;verticalAlign=middle;fontFamily=Helvetica;fontSize=11;fontColor=default;endArrow=classic;" parent="WIyWlLk6GJQsqaUBKTNV-1" source="3eJRVGEnP6KMk6OrLx9T-7" target="3eJRVGEnP6KMk6OrLx9T-9" edge="1">
          <mxGeometry relative="1" as="geometry" />
        </mxCell>
        <mxCell id="3eJRVGEnP6KMk6OrLx9T-7" value="查询CreditUser表数据" style="whiteSpace=wrap;html=1;fillColor=#d5e8d4;strokeColor=#82b366;strokeWidth=2;" parent="WIyWlLk6GJQsqaUBKTNV-1" vertex="1">
          <mxGeometry x="420" y="940" width="120" height="60" as="geometry" />
        </mxCell>
        <mxCell id="3eJRVGEnP6KMk6OrLx9T-12" value="" style="edgeStyle=orthogonalEdgeStyle;shape=connector;curved=0;rounded=1;orthogonalLoop=1;jettySize=auto;html=1;labelBackgroundColor=default;strokeColor=default;strokeWidth=1.5;align=center;verticalAlign=middle;fontFamily=Helvetica;fontSize=11;fontColor=default;endArrow=classic;" parent="WIyWlLk6GJQsqaUBKTNV-1" source="3eJRVGEnP6KMk6OrLx9T-9" target="3eJRVGEnP6KMk6OrLx9T-11" edge="1">
          <mxGeometry relative="1" as="geometry" />
        </mxCell>
        <mxCell id="3eJRVGEnP6KMk6OrLx9T-9" value="处理cash_out_apply表command为new_approval的数据，检查激活状态 " style="whiteSpace=wrap;fillColor=#f8cecc;strokeColor=#b85450;strokeWidth=2;" parent="WIyWlLk6GJQsqaUBKTNV-1" vertex="1">
          <mxGeometry x="370" y="1060" width="220" height="60" as="geometry" />
        </mxCell>
        <mxCell id="3eJRVGEnP6KMk6OrLx9T-14" value="" style="edgeStyle=orthogonalEdgeStyle;shape=connector;curved=0;rounded=1;orthogonalLoop=1;jettySize=auto;html=1;labelBackgroundColor=default;strokeColor=default;strokeWidth=1.5;align=center;verticalAlign=middle;fontFamily=Helvetica;fontSize=11;fontColor=default;endArrow=classic;" parent="WIyWlLk6GJQsqaUBKTNV-1" source="3eJRVGEnP6KMk6OrLx9T-11" target="3eJRVGEnP6KMk6OrLx9T-13" edge="1">
          <mxGeometry relative="1" as="geometry" />
        </mxCell>
        <mxCell id="UDWsFxjrf3_HS-iiei2p-1" style="edgeStyle=orthogonalEdgeStyle;rounded=0;orthogonalLoop=1;jettySize=auto;html=1;entryX=0.5;entryY=0;entryDx=0;entryDy=0;" edge="1" parent="WIyWlLk6GJQsqaUBKTNV-1" source="3eJRVGEnP6KMk6OrLx9T-11" target="3eJRVGEnP6KMk6OrLx9T-19">
          <mxGeometry relative="1" as="geometry">
            <mxPoint x="480" y="1220" as="targetPoint" />
          </mxGeometry>
        </mxCell>
        <mxCell id="3eJRVGEnP6KMk6OrLx9T-11" value="查询订单激活状态" style="whiteSpace=wrap;fillColor=#d5e8d4;strokeColor=#82b366;strokeWidth=2;" parent="WIyWlLk6GJQsqaUBKTNV-1" vertex="1">
          <mxGeometry x="420" y="1170" width="120" height="60" as="geometry" />
        </mxCell>
        <mxCell id="3eJRVGEnP6KMk6OrLx9T-13" value="请求风控status/query接口" style="whiteSpace=wrap;fillColor=#d5e8d4;strokeColor=#82b366;strokeWidth=2;" parent="WIyWlLk6GJQsqaUBKTNV-1" vertex="1">
          <mxGeometry x="620" y="1170" width="190" height="60" as="geometry" />
        </mxCell>
        <mxCell id="3eJRVGEnP6KMk6OrLx9T-38" style="edgeStyle=orthogonalEdgeStyle;shape=connector;curved=0;rounded=1;orthogonalLoop=1;jettySize=auto;html=1;labelBackgroundColor=default;strokeColor=default;strokeWidth=1.5;align=center;verticalAlign=middle;fontFamily=Helvetica;fontSize=11;fontColor=default;endArrow=classic;" parent="WIyWlLk6GJQsqaUBKTNV-1" source="3eJRVGEnP6KMk6OrLx9T-19" target="3eJRVGEnP6KMk6OrLx9T-21" edge="1">
          <mxGeometry relative="1" as="geometry" />
        </mxCell>
        <mxCell id="3eJRVGEnP6KMk6OrLx9T-124" style="edgeStyle=orthogonalEdgeStyle;shape=connector;curved=0;rounded=1;orthogonalLoop=1;jettySize=auto;html=1;labelBackgroundColor=default;strokeColor=default;strokeWidth=1.5;align=center;verticalAlign=middle;fontFamily=Helvetica;fontSize=11;fontColor=default;endArrow=classic;" parent="WIyWlLk6GJQsqaUBKTNV-1" target="3eJRVGEnP6KMk6OrLx9T-123" edge="1">
          <mxGeometry relative="1" as="geometry">
            <mxPoint x="580" y="1341" as="sourcePoint" />
          </mxGeometry>
        </mxCell>
        <mxCell id="3eJRVGEnP6KMk6OrLx9T-128" style="edgeStyle=orthogonalEdgeStyle;shape=connector;curved=0;rounded=1;orthogonalLoop=1;jettySize=auto;html=1;labelBackgroundColor=default;strokeColor=default;strokeWidth=1.5;align=center;verticalAlign=middle;fontFamily=Helvetica;fontSize=11;fontColor=default;endArrow=classic;" parent="WIyWlLk6GJQsqaUBKTNV-1" source="3eJRVGEnP6KMk6OrLx9T-19" target="3eJRVGEnP6KMk6OrLx9T-127" edge="1">
          <mxGeometry relative="1" as="geometry" />
        </mxCell>
        <mxCell id="3eJRVGEnP6KMk6OrLx9T-153" style="edgeStyle=orthogonalEdgeStyle;shape=connector;curved=0;rounded=1;orthogonalLoop=1;jettySize=auto;html=1;entryX=0.5;entryY=0;entryDx=0;entryDy=0;labelBackgroundColor=default;strokeColor=default;strokeWidth=1.5;align=center;verticalAlign=middle;fontFamily=Helvetica;fontSize=11;fontColor=default;endArrow=classic;" parent="WIyWlLk6GJQsqaUBKTNV-1" source="3eJRVGEnP6KMk6OrLx9T-19" target="3eJRVGEnP6KMk6OrLx9T-152" edge="1">
          <mxGeometry relative="1" as="geometry" />
        </mxCell>
        <mxCell id="3eJRVGEnP6KMk6OrLx9T-19" value="判断订单激活状态，success/failed/pending/none" style="whiteSpace=wrap;fillColor=#d5e8d4;strokeColor=#82b366;strokeWidth=2;" parent="WIyWlLk6GJQsqaUBKTNV-1" vertex="1">
          <mxGeometry x="380" y="1310" width="200" height="60" as="geometry" />
        </mxCell>
        <mxCell id="3eJRVGEnP6KMk6OrLx9T-25" style="edgeStyle=orthogonalEdgeStyle;shape=connector;curved=0;rounded=1;orthogonalLoop=1;jettySize=auto;html=1;labelBackgroundColor=default;strokeColor=default;strokeWidth=1.5;align=center;verticalAlign=middle;fontFamily=Helvetica;fontSize=11;fontColor=default;endArrow=classic;" parent="WIyWlLk6GJQsqaUBKTNV-1" source="3eJRVGEnP6KMk6OrLx9T-21" target="3eJRVGEnP6KMk6OrLx9T-24" edge="1">
          <mxGeometry relative="1" as="geometry" />
        </mxCell>
        <mxCell id="3eJRVGEnP6KMk6OrLx9T-21" value="订单激活状态为none，处理发起激活" style="whiteSpace=wrap;fillColor=#d5e8d4;strokeColor=#82b366;strokeWidth=2;" parent="WIyWlLk6GJQsqaUBKTNV-1" vertex="1">
          <mxGeometry x="40" y="1430" width="120" height="60" as="geometry" />
        </mxCell>
        <mxCell id="3eJRVGEnP6KMk6OrLx9T-27" value="" style="edgeStyle=orthogonalEdgeStyle;shape=connector;curved=0;rounded=1;orthogonalLoop=1;jettySize=auto;html=1;labelBackgroundColor=default;strokeColor=default;strokeWidth=1.5;align=center;verticalAlign=middle;fontFamily=Helvetica;fontSize=11;fontColor=default;endArrow=classic;" parent="WIyWlLk6GJQsqaUBKTNV-1" source="3eJRVGEnP6KMk6OrLx9T-24" target="3eJRVGEnP6KMk6OrLx9T-26" edge="1">
          <mxGeometry relative="1" as="geometry" />
        </mxCell>
        <mxCell id="3eJRVGEnP6KMk6OrLx9T-24" value="command为new_approval，提交发起激活请求" style="whiteSpace=wrap;fillColor=#d5e8d4;strokeColor=#82b366;strokeWidth=2;" parent="WIyWlLk6GJQsqaUBKTNV-1" vertex="1">
          <mxGeometry x="40" y="1570" width="120" height="60" as="geometry" />
        </mxCell>
        <mxCell id="3eJRVGEnP6KMk6OrLx9T-29" value="" style="edgeStyle=orthogonalEdgeStyle;shape=connector;curved=0;rounded=1;orthogonalLoop=1;jettySize=auto;html=1;labelBackgroundColor=default;strokeColor=default;strokeWidth=1.5;align=center;verticalAlign=middle;fontFamily=Helvetica;fontSize=11;fontColor=default;endArrow=classic;" parent="WIyWlLk6GJQsqaUBKTNV-1" source="3eJRVGEnP6KMk6OrLx9T-26" target="3eJRVGEnP6KMk6OrLx9T-28" edge="1">
          <mxGeometry relative="1" as="geometry" />
        </mxCell>
        <mxCell id="3eJRVGEnP6KMk6OrLx9T-26" value="查询Application2表的预授信记录" style="whiteSpace=wrap;fillColor=#d5e8d4;strokeColor=#82b366;strokeWidth=2;" parent="WIyWlLk6GJQsqaUBKTNV-1" vertex="1">
          <mxGeometry x="40" y="1694" width="120" height="60" as="geometry" />
        </mxCell>
        <mxCell id="3eJRVGEnP6KMk6OrLx9T-31" value="" style="edgeStyle=orthogonalEdgeStyle;shape=connector;curved=0;rounded=1;orthogonalLoop=1;jettySize=auto;html=1;labelBackgroundColor=default;strokeColor=default;strokeWidth=1.5;align=center;verticalAlign=middle;fontFamily=Helvetica;fontSize=11;fontColor=default;endArrow=classic;" parent="WIyWlLk6GJQsqaUBKTNV-1" source="3eJRVGEnP6KMk6OrLx9T-28" target="3eJRVGEnP6KMk6OrLx9T-30" edge="1">
          <mxGeometry relative="1" as="geometry" />
        </mxCell>
        <mxCell id="3eJRVGEnP6KMk6OrLx9T-69" style="edgeStyle=orthogonalEdgeStyle;shape=connector;curved=0;rounded=1;orthogonalLoop=1;jettySize=auto;html=1;entryX=0.5;entryY=0;entryDx=0;entryDy=0;labelBackgroundColor=default;strokeColor=default;strokeWidth=1.5;align=center;verticalAlign=middle;fontFamily=Helvetica;fontSize=11;fontColor=default;endArrow=classic;" parent="WIyWlLk6GJQsqaUBKTNV-1" source="3eJRVGEnP6KMk6OrLx9T-28" target="3eJRVGEnP6KMk6OrLx9T-68" edge="1">
          <mxGeometry relative="1" as="geometry" />
        </mxCell>
        <mxCell id="3eJRVGEnP6KMk6OrLx9T-77" style="edgeStyle=orthogonalEdgeStyle;shape=connector;curved=0;rounded=1;orthogonalLoop=1;jettySize=auto;html=1;entryX=0.5;entryY=0;entryDx=0;entryDy=0;labelBackgroundColor=default;strokeColor=default;strokeWidth=1.5;align=center;verticalAlign=middle;fontFamily=Helvetica;fontSize=11;fontColor=default;endArrow=classic;" parent="WIyWlLk6GJQsqaUBKTNV-1" source="3eJRVGEnP6KMk6OrLx9T-28" target="3eJRVGEnP6KMk6OrLx9T-76" edge="1">
          <mxGeometry relative="1" as="geometry" />
        </mxCell>
        <mxCell id="3eJRVGEnP6KMk6OrLx9T-28" value="通过flowid查询cis当前OCR识别记录" style="whiteSpace=wrap;fillColor=#d5e8d4;strokeColor=#82b366;strokeWidth=2;" parent="WIyWlLk6GJQsqaUBKTNV-1" vertex="1">
          <mxGeometry x="40" y="1810" width="120" height="60" as="geometry" />
        </mxCell>
        <mxCell id="3eJRVGEnP6KMk6OrLx9T-33" value="" style="edgeStyle=orthogonalEdgeStyle;shape=connector;curved=0;rounded=1;orthogonalLoop=1;jettySize=auto;html=1;labelBackgroundColor=default;strokeColor=default;strokeWidth=1.5;align=center;verticalAlign=middle;fontFamily=Helvetica;fontSize=11;fontColor=default;endArrow=classic;" parent="WIyWlLk6GJQsqaUBKTNV-1" source="3eJRVGEnP6KMk6OrLx9T-30" target="3eJRVGEnP6KMk6OrLx9T-32" edge="1">
          <mxGeometry relative="1" as="geometry" />
        </mxCell>
        <mxCell id="3eJRVGEnP6KMk6OrLx9T-30" value="状态为NONE，则进行OCR识别" style="whiteSpace=wrap;fillColor=#d5e8d4;strokeColor=#82b366;strokeWidth=2;" parent="WIyWlLk6GJQsqaUBKTNV-1" vertex="1">
          <mxGeometry x="-250" y="1940" width="120" height="60" as="geometry" />
        </mxCell>
        <mxCell id="3eJRVGEnP6KMk6OrLx9T-35" value="" style="edgeStyle=orthogonalEdgeStyle;shape=connector;curved=0;rounded=1;orthogonalLoop=1;jettySize=auto;html=1;labelBackgroundColor=default;strokeColor=default;strokeWidth=1.5;align=center;verticalAlign=middle;fontFamily=Helvetica;fontSize=11;fontColor=default;endArrow=classic;" parent="WIyWlLk6GJQsqaUBKTNV-1" source="3eJRVGEnP6KMk6OrLx9T-32" target="3eJRVGEnP6KMk6OrLx9T-34" edge="1">
          <mxGeometry relative="1" as="geometry" />
        </mxCell>
        <mxCell id="UDWsFxjrf3_HS-iiei2p-15" style="edgeStyle=orthogonalEdgeStyle;shape=connector;curved=0;rounded=1;orthogonalLoop=1;jettySize=auto;html=1;strokeColor=default;align=center;verticalAlign=middle;fontFamily=Helvetica;fontSize=11;fontColor=default;labelBackgroundColor=default;endArrow=classic;" edge="1" parent="WIyWlLk6GJQsqaUBKTNV-1" source="3eJRVGEnP6KMk6OrLx9T-32" target="3eJRVGEnP6KMk6OrLx9T-39">
          <mxGeometry relative="1" as="geometry" />
        </mxCell>
        <mxCell id="3eJRVGEnP6KMk6OrLx9T-32" value="获取正反面ocr文件流" style="whiteSpace=wrap;fillColor=#d5e8d4;strokeColor=#82b366;strokeWidth=2;" parent="WIyWlLk6GJQsqaUBKTNV-1" vertex="1">
          <mxGeometry x="-250" y="2060" width="120" height="60" as="geometry" />
        </mxCell>
        <mxCell id="3eJRVGEnP6KMk6OrLx9T-34" value="从oss地址或请求gateway async接口拉取base64格式图片数据获取" style="whiteSpace=wrap;fillColor=#d5e8d4;strokeColor=#82b366;strokeWidth=2;" parent="WIyWlLk6GJQsqaUBKTNV-1" vertex="1">
          <mxGeometry x="-450" y="2060" width="120" height="60" as="geometry" />
        </mxCell>
        <mxCell id="UDWsFxjrf3_HS-iiei2p-16" style="edgeStyle=orthogonalEdgeStyle;shape=connector;curved=0;rounded=1;orthogonalLoop=1;jettySize=auto;html=1;entryX=0.5;entryY=0;entryDx=0;entryDy=0;strokeColor=default;align=center;verticalAlign=middle;fontFamily=Helvetica;fontSize=11;fontColor=default;labelBackgroundColor=default;endArrow=classic;" edge="1" parent="WIyWlLk6GJQsqaUBKTNV-1" source="3eJRVGEnP6KMk6OrLx9T-39" target="3eJRVGEnP6KMk6OrLx9T-43">
          <mxGeometry relative="1" as="geometry" />
        </mxCell>
        <mxCell id="3eJRVGEnP6KMk6OrLx9T-39" value="请求CIS保存正反面文件" style="whiteSpace=wrap;fillColor=#d5e8d4;strokeColor=#82b366;strokeWidth=2;" parent="WIyWlLk6GJQsqaUBKTNV-1" vertex="1">
          <mxGeometry x="-250" y="2220" width="120" height="60" as="geometry" />
        </mxCell>
        <mxCell id="3eJRVGEnP6KMk6OrLx9T-46" value="" style="edgeStyle=orthogonalEdgeStyle;shape=connector;curved=0;rounded=1;orthogonalLoop=1;jettySize=auto;html=1;labelBackgroundColor=default;strokeColor=default;strokeWidth=1.5;align=center;verticalAlign=middle;fontFamily=Helvetica;fontSize=11;fontColor=default;endArrow=classic;" parent="WIyWlLk6GJQsqaUBKTNV-1" source="3eJRVGEnP6KMk6OrLx9T-43" target="3eJRVGEnP6KMk6OrLx9T-45" edge="1">
          <mxGeometry relative="1" as="geometry" />
        </mxCell>
        <mxCell id="3eJRVGEnP6KMk6OrLx9T-50" value="" style="edgeStyle=orthogonalEdgeStyle;shape=connector;curved=0;rounded=1;orthogonalLoop=1;jettySize=auto;html=1;labelBackgroundColor=default;strokeColor=default;strokeWidth=1.5;align=center;verticalAlign=middle;fontFamily=Helvetica;fontSize=11;fontColor=default;endArrow=classic;" parent="WIyWlLk6GJQsqaUBKTNV-1" source="3eJRVGEnP6KMk6OrLx9T-43" target="3eJRVGEnP6KMk6OrLx9T-49" edge="1">
          <mxGeometry relative="1" as="geometry" />
        </mxCell>
        <mxCell id="3eJRVGEnP6KMk6OrLx9T-43" value="请求旷世接口进行OCR决策" style="whiteSpace=wrap;fillColor=#d5e8d4;strokeColor=#82b366;strokeWidth=2;" parent="WIyWlLk6GJQsqaUBKTNV-1" vertex="1">
          <mxGeometry x="-250" y="2521" width="120" height="60" as="geometry" />
        </mxCell>
        <mxCell id="3eJRVGEnP6KMk6OrLx9T-48" value="" style="edgeStyle=orthogonalEdgeStyle;shape=connector;curved=0;rounded=1;orthogonalLoop=1;jettySize=auto;html=1;labelBackgroundColor=default;strokeColor=default;strokeWidth=1.5;align=center;verticalAlign=middle;fontFamily=Helvetica;fontSize=11;fontColor=default;endArrow=classic;" parent="WIyWlLk6GJQsqaUBKTNV-1" source="3eJRVGEnP6KMk6OrLx9T-45" target="3eJRVGEnP6KMk6OrLx9T-47" edge="1">
          <mxGeometry relative="1" as="geometry" />
        </mxCell>
        <mxCell id="3eJRVGEnP6KMk6OrLx9T-45" value="判断旷世返回的决策结果" style="whiteSpace=wrap;fillColor=#d5e8d4;strokeColor=#82b366;strokeWidth=2;" parent="WIyWlLk6GJQsqaUBKTNV-1" vertex="1">
          <mxGeometry x="-50" y="2521" width="120" height="60" as="geometry" />
        </mxCell>
        <mxCell id="3eJRVGEnP6KMk6OrLx9T-54" value="" style="edgeStyle=orthogonalEdgeStyle;shape=connector;curved=0;rounded=1;orthogonalLoop=1;jettySize=auto;html=1;labelBackgroundColor=default;strokeColor=default;strokeWidth=1.5;align=center;verticalAlign=middle;fontFamily=Helvetica;fontSize=11;fontColor=default;endArrow=classic;" parent="WIyWlLk6GJQsqaUBKTNV-1" source="3eJRVGEnP6KMk6OrLx9T-47" target="3eJRVGEnP6KMk6OrLx9T-53" edge="1">
          <mxGeometry relative="1" as="geometry" />
        </mxCell>
        <mxCell id="3eJRVGEnP6KMk6OrLx9T-47" value="请求CIS保存决策结果" style="whiteSpace=wrap;fillColor=#d5e8d4;strokeColor=#82b366;strokeWidth=2;" parent="WIyWlLk6GJQsqaUBKTNV-1" vertex="1">
          <mxGeometry x="150" y="2521" width="120" height="60" as="geometry" />
        </mxCell>
        <mxCell id="3eJRVGEnP6KMk6OrLx9T-52" value="" style="edgeStyle=orthogonalEdgeStyle;shape=connector;curved=0;rounded=1;orthogonalLoop=1;jettySize=auto;html=1;labelBackgroundColor=default;strokeColor=default;strokeWidth=1.5;align=center;verticalAlign=middle;fontFamily=Helvetica;fontSize=11;fontColor=default;endArrow=classic;" parent="WIyWlLk6GJQsqaUBKTNV-1" source="3eJRVGEnP6KMk6OrLx9T-49" target="3eJRVGEnP6KMk6OrLx9T-51" edge="1">
          <mxGeometry relative="1" as="geometry" />
        </mxCell>
        <mxCell id="3eJRVGEnP6KMk6OrLx9T-64" style="edgeStyle=orthogonalEdgeStyle;shape=connector;curved=0;rounded=1;orthogonalLoop=1;jettySize=auto;html=1;entryX=0;entryY=0.5;entryDx=0;entryDy=0;labelBackgroundColor=default;strokeColor=default;strokeWidth=1.5;align=center;verticalAlign=middle;fontFamily=Helvetica;fontSize=11;fontColor=default;endArrow=classic;" parent="WIyWlLk6GJQsqaUBKTNV-1" source="3eJRVGEnP6KMk6OrLx9T-49" target="3eJRVGEnP6KMk6OrLx9T-58" edge="1">
          <mxGeometry relative="1" as="geometry" />
        </mxCell>
        <mxCell id="3eJRVGEnP6KMk6OrLx9T-49" value="如果旷世识别有问题，再根据开关决定是否要从腾讯再识别一次" style="whiteSpace=wrap;fillColor=#d5e8d4;strokeColor=#82b366;strokeWidth=2;" parent="WIyWlLk6GJQsqaUBKTNV-1" vertex="1">
          <mxGeometry x="-250" y="2640" width="120" height="60" as="geometry" />
        </mxCell>
        <mxCell id="3eJRVGEnP6KMk6OrLx9T-81" value="" style="edgeStyle=orthogonalEdgeStyle;shape=connector;curved=0;rounded=1;orthogonalLoop=1;jettySize=auto;html=1;labelBackgroundColor=default;strokeColor=default;strokeWidth=1.5;align=center;verticalAlign=middle;fontFamily=Helvetica;fontSize=11;fontColor=default;endArrow=classic;" parent="WIyWlLk6GJQsqaUBKTNV-1" source="3eJRVGEnP6KMk6OrLx9T-51" target="3eJRVGEnP6KMk6OrLx9T-80" edge="1">
          <mxGeometry relative="1" as="geometry" />
        </mxCell>
        <mxCell id="3eJRVGEnP6KMk6OrLx9T-51" value="查询FaceVerify表数据" style="whiteSpace=wrap;fillColor=#d5e8d4;strokeColor=#82b366;strokeWidth=2;" parent="WIyWlLk6GJQsqaUBKTNV-1" vertex="1">
          <mxGeometry x="-250" y="2750" width="120" height="60" as="geometry" />
        </mxCell>
        <mxCell id="3eJRVGEnP6KMk6OrLx9T-56" value="" style="edgeStyle=orthogonalEdgeStyle;shape=connector;curved=0;rounded=1;orthogonalLoop=1;jettySize=auto;html=1;labelBackgroundColor=default;strokeColor=default;strokeWidth=1.5;align=center;verticalAlign=middle;fontFamily=Helvetica;fontSize=11;fontColor=default;endArrow=classic;" parent="WIyWlLk6GJQsqaUBKTNV-1" source="3eJRVGEnP6KMk6OrLx9T-53" target="3eJRVGEnP6KMk6OrLx9T-55" edge="1">
          <mxGeometry relative="1" as="geometry" />
        </mxCell>
        <mxCell id="3eJRVGEnP6KMk6OrLx9T-53" value="如果正反面都是通过，请求CIS保存decision为PASS" style="whiteSpace=wrap;fillColor=#d5e8d4;strokeColor=#82b366;strokeWidth=2;" parent="WIyWlLk6GJQsqaUBKTNV-1" vertex="1">
          <mxGeometry x="350" y="2521" width="120" height="60" as="geometry" />
        </mxCell>
        <mxCell id="3eJRVGEnP6KMk6OrLx9T-55" value="异步请求上报系统进行身份证认证上报" style="whiteSpace=wrap;fillColor=#d5e8d4;strokeColor=#82b366;strokeWidth=2;" parent="WIyWlLk6GJQsqaUBKTNV-1" vertex="1">
          <mxGeometry x="350" y="2410" width="120" height="60" as="geometry" />
        </mxCell>
        <mxCell id="3eJRVGEnP6KMk6OrLx9T-57" value="" style="edgeStyle=orthogonalEdgeStyle;shape=connector;curved=0;rounded=1;orthogonalLoop=1;jettySize=auto;html=1;labelBackgroundColor=default;strokeColor=default;strokeWidth=1.5;align=center;verticalAlign=middle;fontFamily=Helvetica;fontSize=11;fontColor=default;endArrow=classic;" parent="WIyWlLk6GJQsqaUBKTNV-1" source="3eJRVGEnP6KMk6OrLx9T-58" target="3eJRVGEnP6KMk6OrLx9T-60" edge="1">
          <mxGeometry relative="1" as="geometry" />
        </mxCell>
        <mxCell id="3eJRVGEnP6KMk6OrLx9T-58" value="请求kyc的ocr-id-card/by-image接口进行OCR决策" style="whiteSpace=wrap;fillColor=#d5e8d4;strokeColor=#82b366;strokeWidth=2;" parent="WIyWlLk6GJQsqaUBKTNV-1" vertex="1">
          <mxGeometry x="-60" y="2640" width="120" height="60" as="geometry" />
        </mxCell>
        <mxCell id="3eJRVGEnP6KMk6OrLx9T-59" value="" style="edgeStyle=orthogonalEdgeStyle;shape=connector;curved=0;rounded=1;orthogonalLoop=1;jettySize=auto;html=1;labelBackgroundColor=default;strokeColor=default;strokeWidth=1.5;align=center;verticalAlign=middle;fontFamily=Helvetica;fontSize=11;fontColor=default;endArrow=classic;" parent="WIyWlLk6GJQsqaUBKTNV-1" source="3eJRVGEnP6KMk6OrLx9T-60" target="3eJRVGEnP6KMk6OrLx9T-62" edge="1">
          <mxGeometry relative="1" as="geometry" />
        </mxCell>
        <mxCell id="3eJRVGEnP6KMk6OrLx9T-60" value="判断腾讯返回的决策结果" style="whiteSpace=wrap;fillColor=#d5e8d4;strokeColor=#82b366;strokeWidth=2;" parent="WIyWlLk6GJQsqaUBKTNV-1" vertex="1">
          <mxGeometry x="140" y="2640" width="120" height="60" as="geometry" />
        </mxCell>
        <mxCell id="3eJRVGEnP6KMk6OrLx9T-61" value="" style="edgeStyle=orthogonalEdgeStyle;shape=connector;curved=0;rounded=1;orthogonalLoop=1;jettySize=auto;html=1;labelBackgroundColor=default;strokeColor=default;strokeWidth=1.5;align=center;verticalAlign=middle;fontFamily=Helvetica;fontSize=11;fontColor=default;endArrow=classic;" parent="WIyWlLk6GJQsqaUBKTNV-1" source="3eJRVGEnP6KMk6OrLx9T-62" target="3eJRVGEnP6KMk6OrLx9T-63" edge="1">
          <mxGeometry relative="1" as="geometry" />
        </mxCell>
        <mxCell id="3eJRVGEnP6KMk6OrLx9T-62" value="请求CIS保存腾讯的决策结果" style="whiteSpace=wrap;fillColor=#d5e8d4;strokeColor=#82b366;strokeWidth=2;" parent="WIyWlLk6GJQsqaUBKTNV-1" vertex="1">
          <mxGeometry x="340" y="2640" width="120" height="60" as="geometry" />
        </mxCell>
        <mxCell id="3eJRVGEnP6KMk6OrLx9T-65" style="edgeStyle=orthogonalEdgeStyle;shape=connector;curved=0;rounded=1;orthogonalLoop=1;jettySize=auto;html=1;entryX=1;entryY=0.5;entryDx=0;entryDy=0;labelBackgroundColor=default;strokeColor=default;strokeWidth=1.5;align=center;verticalAlign=middle;fontFamily=Helvetica;fontSize=11;fontColor=default;endArrow=classic;" parent="WIyWlLk6GJQsqaUBKTNV-1" source="3eJRVGEnP6KMk6OrLx9T-63" target="3eJRVGEnP6KMk6OrLx9T-55" edge="1">
          <mxGeometry relative="1" as="geometry">
            <Array as="points">
              <mxPoint x="600" y="2440" />
            </Array>
          </mxGeometry>
        </mxCell>
        <mxCell id="3eJRVGEnP6KMk6OrLx9T-63" value="如果正反面都是通过，请求CIS保存decision为PASS" style="whiteSpace=wrap;fillColor=#d5e8d4;strokeColor=#82b366;strokeWidth=2;" parent="WIyWlLk6GJQsqaUBKTNV-1" vertex="1">
          <mxGeometry x="540" y="2640" width="120" height="60" as="geometry" />
        </mxCell>
        <mxCell id="3eJRVGEnP6KMk6OrLx9T-71" value="" style="edgeStyle=orthogonalEdgeStyle;shape=connector;curved=0;rounded=1;orthogonalLoop=1;jettySize=auto;html=1;labelBackgroundColor=default;strokeColor=default;strokeWidth=1.5;align=center;verticalAlign=middle;fontFamily=Helvetica;fontSize=11;fontColor=default;endArrow=classic;" parent="WIyWlLk6GJQsqaUBKTNV-1" source="3eJRVGEnP6KMk6OrLx9T-68" target="3eJRVGEnP6KMk6OrLx9T-70" edge="1">
          <mxGeometry relative="1" as="geometry" />
        </mxCell>
        <mxCell id="3eJRVGEnP6KMk6OrLx9T-68" value="状态为PASS" style="whiteSpace=wrap;fillColor=#d5e8d4;strokeColor=#82b366;strokeWidth=2;" parent="WIyWlLk6GJQsqaUBKTNV-1" vertex="1">
          <mxGeometry x="40" y="1940" width="120" height="60" as="geometry" />
        </mxCell>
        <mxCell id="3eJRVGEnP6KMk6OrLx9T-75" value="" style="edgeStyle=orthogonalEdgeStyle;shape=connector;curved=0;rounded=1;orthogonalLoop=1;jettySize=auto;html=1;labelBackgroundColor=default;strokeColor=default;strokeWidth=1.5;align=center;verticalAlign=middle;fontFamily=Helvetica;fontSize=11;fontColor=default;endArrow=classic;" parent="WIyWlLk6GJQsqaUBKTNV-1" source="3eJRVGEnP6KMk6OrLx9T-70" target="3eJRVGEnP6KMk6OrLx9T-74" edge="1">
          <mxGeometry relative="1" as="geometry" />
        </mxCell>
        <mxCell id="3eJRVGEnP6KMk6OrLx9T-70" value="请求CIS上报ocr风险挑战项信息" style="whiteSpace=wrap;fillColor=#d5e8d4;strokeColor=#82b366;strokeWidth=2;" parent="WIyWlLk6GJQsqaUBKTNV-1" vertex="1">
          <mxGeometry x="40" y="2060" width="120" height="60" as="geometry" />
        </mxCell>
        <mxCell id="3eJRVGEnP6KMk6OrLx9T-74" value="上报异常，重新加入激活队列" style="whiteSpace=wrap;fillColor=#d5e8d4;strokeColor=#82b366;strokeWidth=2;" parent="WIyWlLk6GJQsqaUBKTNV-1" vertex="1">
          <mxGeometry x="40" y="2290" width="120" height="60" as="geometry" />
        </mxCell>
        <mxCell id="3eJRVGEnP6KMk6OrLx9T-79" value="" style="edgeStyle=orthogonalEdgeStyle;shape=connector;curved=0;rounded=1;orthogonalLoop=1;jettySize=auto;html=1;labelBackgroundColor=default;strokeColor=default;strokeWidth=1.5;align=center;verticalAlign=middle;fontFamily=Helvetica;fontSize=11;fontColor=default;endArrow=classic;" parent="WIyWlLk6GJQsqaUBKTNV-1" source="3eJRVGEnP6KMk6OrLx9T-76" target="3eJRVGEnP6KMk6OrLx9T-78" edge="1">
          <mxGeometry relative="1" as="geometry" />
        </mxCell>
        <mxCell id="3eJRVGEnP6KMk6OrLx9T-76" value="当前flowid不存在记录" style="whiteSpace=wrap;fillColor=#d5e8d4;strokeColor=#82b366;strokeWidth=2;" parent="WIyWlLk6GJQsqaUBKTNV-1" vertex="1">
          <mxGeometry x="360" y="1940" width="120" height="60" as="geometry" />
        </mxCell>
        <mxCell id="3eJRVGEnP6KMk6OrLx9T-78" value="更新cash_out_apply表的activation_status为failed" style="whiteSpace=wrap;fillColor=#d5e8d4;strokeColor=#82b366;strokeWidth=2;" parent="WIyWlLk6GJQsqaUBKTNV-1" vertex="1">
          <mxGeometry x="360" y="2160" width="120" height="60" as="geometry" />
        </mxCell>
        <mxCell id="3eJRVGEnP6KMk6OrLx9T-83" value="" style="edgeStyle=orthogonalEdgeStyle;shape=connector;curved=0;rounded=1;orthogonalLoop=1;jettySize=auto;html=1;labelBackgroundColor=default;strokeColor=default;strokeWidth=1.5;align=center;verticalAlign=middle;fontFamily=Helvetica;fontSize=11;fontColor=default;endArrow=classic;" parent="WIyWlLk6GJQsqaUBKTNV-1" source="3eJRVGEnP6KMk6OrLx9T-80" target="3eJRVGEnP6KMk6OrLx9T-82" edge="1">
          <mxGeometry relative="1" as="geometry" />
        </mxCell>
        <mxCell id="3eJRVGEnP6KMk6OrLx9T-80" value="FaceVerify的status为NONE" style="whiteSpace=wrap;fillColor=#d5e8d4;strokeColor=#82b366;strokeWidth=2;" parent="WIyWlLk6GJQsqaUBKTNV-1" vertex="1">
          <mxGeometry x="-470" y="2860" width="120" height="60" as="geometry" />
        </mxCell>
        <mxCell id="3eJRVGEnP6KMk6OrLx9T-85" value="" style="edgeStyle=orthogonalEdgeStyle;shape=connector;curved=0;rounded=1;orthogonalLoop=1;jettySize=auto;html=1;labelBackgroundColor=default;strokeColor=default;strokeWidth=1.5;align=center;verticalAlign=middle;fontFamily=Helvetica;fontSize=11;fontColor=default;endArrow=classic;" parent="WIyWlLk6GJQsqaUBKTNV-1" source="3eJRVGEnP6KMk6OrLx9T-82" target="3eJRVGEnP6KMk6OrLx9T-84" edge="1">
          <mxGeometry relative="1" as="geometry" />
        </mxCell>
        <mxCell id="3eJRVGEnP6KMk6OrLx9T-82" value="获取face文件流" style="whiteSpace=wrap;fillColor=#d5e8d4;strokeColor=#82b366;strokeWidth=2;" parent="WIyWlLk6GJQsqaUBKTNV-1" vertex="1">
          <mxGeometry x="-470" y="2990" width="120" height="60" as="geometry" />
        </mxCell>
        <mxCell id="3eJRVGEnP6KMk6OrLx9T-87" value="" style="edgeStyle=orthogonalEdgeStyle;shape=connector;curved=0;rounded=1;orthogonalLoop=1;jettySize=auto;html=1;labelBackgroundColor=default;strokeColor=default;strokeWidth=1.5;align=center;verticalAlign=middle;fontFamily=Helvetica;fontSize=11;fontColor=default;endArrow=classic;" parent="WIyWlLk6GJQsqaUBKTNV-1" source="3eJRVGEnP6KMk6OrLx9T-84" target="3eJRVGEnP6KMk6OrLx9T-86" edge="1">
          <mxGeometry relative="1" as="geometry" />
        </mxCell>
        <mxCell id="3eJRVGEnP6KMk6OrLx9T-96" value="上传正常" style="edgeLabel;html=1;align=center;verticalAlign=middle;resizable=0;points=[];fontSize=11;fontFamily=Helvetica;fontColor=default;" parent="3eJRVGEnP6KMk6OrLx9T-87" vertex="1" connectable="0">
          <mxGeometry x="-0.025" y="5" relative="1" as="geometry">
            <mxPoint y="5" as="offset" />
          </mxGeometry>
        </mxCell>
        <mxCell id="3eJRVGEnP6KMk6OrLx9T-94" value="" style="edgeStyle=orthogonalEdgeStyle;shape=connector;curved=0;rounded=1;orthogonalLoop=1;jettySize=auto;html=1;labelBackgroundColor=default;strokeColor=default;strokeWidth=1.5;align=center;verticalAlign=middle;fontFamily=Helvetica;fontSize=11;fontColor=default;endArrow=classic;" parent="WIyWlLk6GJQsqaUBKTNV-1" source="3eJRVGEnP6KMk6OrLx9T-84" target="3eJRVGEnP6KMk6OrLx9T-93" edge="1">
          <mxGeometry relative="1" as="geometry" />
        </mxCell>
        <mxCell id="3eJRVGEnP6KMk6OrLx9T-95" value="上传异常" style="edgeLabel;html=1;align=center;verticalAlign=middle;resizable=0;points=[];fontSize=11;fontFamily=Helvetica;fontColor=default;" parent="3eJRVGEnP6KMk6OrLx9T-94" vertex="1" connectable="0">
          <mxGeometry x="-0.08" y="-4" relative="1" as="geometry">
            <mxPoint as="offset" />
          </mxGeometry>
        </mxCell>
        <mxCell id="3eJRVGEnP6KMk6OrLx9T-98" value="" style="edgeStyle=orthogonalEdgeStyle;shape=connector;curved=0;rounded=1;orthogonalLoop=1;jettySize=auto;html=1;labelBackgroundColor=default;strokeColor=default;strokeWidth=1.5;align=center;verticalAlign=middle;fontFamily=Helvetica;fontSize=11;fontColor=default;endArrow=classic;entryX=0.5;entryY=0;entryDx=0;entryDy=0;" parent="WIyWlLk6GJQsqaUBKTNV-1" source="3eJRVGEnP6KMk6OrLx9T-84" target="3eJRVGEnP6KMk6OrLx9T-99" edge="1">
          <mxGeometry relative="1" as="geometry">
            <mxPoint x="-410" y="3240" as="targetPoint" />
          </mxGeometry>
        </mxCell>
        <mxCell id="3eJRVGEnP6KMk6OrLx9T-84" value="将face数据请求CIS保存" style="whiteSpace=wrap;fillColor=#d5e8d4;strokeColor=#82b366;strokeWidth=2;" parent="WIyWlLk6GJQsqaUBKTNV-1" vertex="1">
          <mxGeometry x="-470" y="3110" width="120" height="60" as="geometry" />
        </mxCell>
        <mxCell id="3eJRVGEnP6KMk6OrLx9T-89" value="" style="edgeStyle=orthogonalEdgeStyle;shape=connector;curved=0;rounded=1;orthogonalLoop=1;jettySize=auto;html=1;labelBackgroundColor=default;strokeColor=default;strokeWidth=1.5;align=center;verticalAlign=middle;fontFamily=Helvetica;fontSize=11;fontColor=default;endArrow=classic;" parent="WIyWlLk6GJQsqaUBKTNV-1" source="3eJRVGEnP6KMk6OrLx9T-86" target="3eJRVGEnP6KMk6OrLx9T-88" edge="1">
          <mxGeometry relative="1" as="geometry" />
        </mxCell>
        <mxCell id="3eJRVGEnP6KMk6OrLx9T-86" value="请求CIS保存FACE识别的flowid对应的状态为UPLOAD" style="whiteSpace=wrap;fillColor=#d5e8d4;strokeColor=#82b366;strokeWidth=2;" parent="WIyWlLk6GJQsqaUBKTNV-1" vertex="1">
          <mxGeometry x="-180" y="3110" width="120" height="60" as="geometry" />
        </mxCell>
        <mxCell id="3eJRVGEnP6KMk6OrLx9T-88" value="请求CIS上报封风险挑战项数据" style="whiteSpace=wrap;fillColor=#d5e8d4;strokeColor=#82b366;strokeWidth=2;" parent="WIyWlLk6GJQsqaUBKTNV-1" vertex="1">
          <mxGeometry x="70" y="3110" width="120" height="60" as="geometry" />
        </mxCell>
        <mxCell id="3eJRVGEnP6KMk6OrLx9T-92" style="edgeStyle=orthogonalEdgeStyle;shape=connector;curved=0;rounded=1;orthogonalLoop=1;jettySize=auto;html=1;entryX=1;entryY=0.5;entryDx=0;entryDy=0;labelBackgroundColor=default;strokeColor=default;strokeWidth=1.5;align=center;verticalAlign=middle;fontFamily=Helvetica;fontSize=11;fontColor=default;endArrow=classic;exitX=1;exitY=0.5;exitDx=0;exitDy=0;" parent="WIyWlLk6GJQsqaUBKTNV-1" source="3eJRVGEnP6KMk6OrLx9T-88" target="3eJRVGEnP6KMk6OrLx9T-74" edge="1">
          <mxGeometry relative="1" as="geometry">
            <Array as="points">
              <mxPoint x="690" y="3140" />
              <mxPoint x="690" y="2320" />
            </Array>
            <mxPoint x="250" y="3140" as="sourcePoint" />
          </mxGeometry>
        </mxCell>
        <mxCell id="3eJRVGEnP6KMk6OrLx9T-93" value="上传异常，则将cash_out_apply表status改为 5-&gt;face决策失败" style="whiteSpace=wrap;fillColor=#d5e8d4;strokeColor=#82b366;strokeWidth=2;" parent="WIyWlLk6GJQsqaUBKTNV-1" vertex="1">
          <mxGeometry x="-690" y="3110" width="120" height="60" as="geometry" />
        </mxCell>
        <mxCell id="3eJRVGEnP6KMk6OrLx9T-101" value="" style="edgeStyle=orthogonalEdgeStyle;shape=connector;curved=0;rounded=1;orthogonalLoop=1;jettySize=auto;html=1;labelBackgroundColor=default;strokeColor=default;strokeWidth=1.5;align=center;verticalAlign=middle;fontFamily=Helvetica;fontSize=11;fontColor=default;endArrow=classic;" parent="WIyWlLk6GJQsqaUBKTNV-1" source="3eJRVGEnP6KMk6OrLx9T-99" target="3eJRVGEnP6KMk6OrLx9T-100" edge="1">
          <mxGeometry relative="1" as="geometry" />
        </mxCell>
        <mxCell id="3eJRVGEnP6KMk6OrLx9T-102" value="是" style="edgeLabel;html=1;align=center;verticalAlign=middle;resizable=0;points=[];fontSize=11;fontFamily=Helvetica;fontColor=default;" parent="3eJRVGEnP6KMk6OrLx9T-101" vertex="1" connectable="0">
          <mxGeometry x="-0.0444" y="-2" relative="1" as="geometry">
            <mxPoint as="offset" />
          </mxGeometry>
        </mxCell>
        <mxCell id="3eJRVGEnP6KMk6OrLx9T-99" value="&lt;font style=&quot;font-size: 12px;&quot;&gt;查询Activation表判断用户是不是第一次激活&lt;/font&gt;" style="rhombus;whiteSpace=wrap;html=1;fontFamily=Helvetica;fontSize=11;fillColor=#d5e8d4;strokeColor=#82b366;" parent="WIyWlLk6GJQsqaUBKTNV-1" vertex="1">
          <mxGeometry x="-515" y="3230" width="210" height="80" as="geometry" />
        </mxCell>
        <mxCell id="3eJRVGEnP6KMk6OrLx9T-104" value="" style="edgeStyle=orthogonalEdgeStyle;shape=connector;curved=0;rounded=1;orthogonalLoop=1;jettySize=auto;html=1;labelBackgroundColor=default;strokeColor=default;strokeWidth=1.5;align=center;verticalAlign=middle;fontFamily=Helvetica;fontSize=11;fontColor=default;endArrow=classic;" parent="WIyWlLk6GJQsqaUBKTNV-1" source="3eJRVGEnP6KMk6OrLx9T-100" target="3eJRVGEnP6KMk6OrLx9T-103" edge="1">
          <mxGeometry relative="1" as="geometry" />
        </mxCell>
        <mxCell id="3eJRVGEnP6KMk6OrLx9T-106" value="" style="edgeStyle=orthogonalEdgeStyle;shape=connector;curved=0;rounded=1;orthogonalLoop=1;jettySize=auto;html=1;labelBackgroundColor=default;strokeColor=default;strokeWidth=1.5;align=center;verticalAlign=middle;fontFamily=Helvetica;fontSize=11;fontColor=default;endArrow=classic;" parent="WIyWlLk6GJQsqaUBKTNV-1" source="3eJRVGEnP6KMk6OrLx9T-100" target="3eJRVGEnP6KMk6OrLx9T-105" edge="1">
          <mxGeometry relative="1" as="geometry" />
        </mxCell>
        <mxCell id="3eJRVGEnP6KMk6OrLx9T-100" value="调用cash/generate-person-contract接口生成个人信息授权合同" style="whiteSpace=wrap;html=1;fontSize=12;fillColor=#d5e8d4;strokeColor=#82b366;" parent="WIyWlLk6GJQsqaUBKTNV-1" vertex="1">
          <mxGeometry x="-485" y="3375" width="150" height="60" as="geometry" />
        </mxCell>
        <mxCell id="3eJRVGEnP6KMk6OrLx9T-103" value="cash_out_apply表的person_contract_id存储合同编号" style="whiteSpace=wrap;html=1;fontSize=12;fillColor=#d5e8d4;strokeColor=#82b366;" parent="WIyWlLk6GJQsqaUBKTNV-1" vertex="1">
          <mxGeometry x="-255" y="3375" width="195" height="60" as="geometry" />
        </mxCell>
        <mxCell id="3eJRVGEnP6KMk6OrLx9T-108" value="" style="edgeStyle=orthogonalEdgeStyle;shape=connector;curved=0;rounded=1;orthogonalLoop=1;jettySize=auto;html=1;labelBackgroundColor=default;strokeColor=default;strokeWidth=1.5;align=center;verticalAlign=middle;fontFamily=Helvetica;fontSize=11;fontColor=default;endArrow=classic;" parent="WIyWlLk6GJQsqaUBKTNV-1" source="3eJRVGEnP6KMk6OrLx9T-105" target="3eJRVGEnP6KMk6OrLx9T-107" edge="1">
          <mxGeometry relative="1" as="geometry" />
        </mxCell>
        <mxCell id="3eJRVGEnP6KMk6OrLx9T-109" value="无" style="edgeLabel;html=1;align=center;verticalAlign=middle;resizable=0;points=[];fontSize=11;fontFamily=Helvetica;fontColor=default;" parent="3eJRVGEnP6KMk6OrLx9T-108" vertex="1" connectable="0">
          <mxGeometry x="-0.0667" y="-1" relative="1" as="geometry">
            <mxPoint as="offset" />
          </mxGeometry>
        </mxCell>
        <mxCell id="UDWsFxjrf3_HS-iiei2p-17" style="edgeStyle=orthogonalEdgeStyle;shape=connector;curved=0;rounded=1;orthogonalLoop=1;jettySize=auto;html=1;entryX=0;entryY=0.5;entryDx=0;entryDy=0;strokeColor=default;align=center;verticalAlign=middle;fontFamily=Helvetica;fontSize=11;fontColor=default;labelBackgroundColor=default;endArrow=classic;" edge="1" parent="WIyWlLk6GJQsqaUBKTNV-1" source="3eJRVGEnP6KMk6OrLx9T-105" target="3eJRVGEnP6KMk6OrLx9T-115">
          <mxGeometry relative="1" as="geometry">
            <Array as="points">
              <mxPoint x="-550" y="3545" />
              <mxPoint x="-550" y="3940" />
            </Array>
          </mxGeometry>
        </mxCell>
        <mxCell id="UDWsFxjrf3_HS-iiei2p-18" value="有" style="edgeLabel;html=1;align=center;verticalAlign=middle;resizable=0;points=[];fontFamily=Helvetica;fontSize=11;fontColor=default;labelBackgroundColor=default;" vertex="1" connectable="0" parent="UDWsFxjrf3_HS-iiei2p-17">
          <mxGeometry x="-0.2122" y="-3" relative="1" as="geometry">
            <mxPoint as="offset" />
          </mxGeometry>
        </mxCell>
        <mxCell id="3eJRVGEnP6KMk6OrLx9T-105" value="查询Activation&lt;span style=&quot;background-color: initial;&quot;&gt;表是否有status为NONE的记录&lt;/span&gt;" style="rhombus;whiteSpace=wrap;html=1;fillColor=#d5e8d4;strokeColor=#82b366;" parent="WIyWlLk6GJQsqaUBKTNV-1" vertex="1">
          <mxGeometry x="-510" y="3505" width="200" height="80" as="geometry" />
        </mxCell>
        <mxCell id="3eJRVGEnP6KMk6OrLx9T-111" value="" style="edgeStyle=orthogonalEdgeStyle;shape=connector;curved=0;rounded=1;orthogonalLoop=1;jettySize=auto;html=1;labelBackgroundColor=default;strokeColor=default;strokeWidth=1.5;align=center;verticalAlign=middle;fontFamily=Helvetica;fontSize=11;fontColor=default;endArrow=classic;" parent="WIyWlLk6GJQsqaUBKTNV-1" source="3eJRVGEnP6KMk6OrLx9T-107" target="3eJRVGEnP6KMk6OrLx9T-110" edge="1">
          <mxGeometry relative="1" as="geometry" />
        </mxCell>
        <mxCell id="3eJRVGEnP6KMk6OrLx9T-114" value="" style="edgeStyle=orthogonalEdgeStyle;shape=connector;curved=0;rounded=1;orthogonalLoop=1;jettySize=auto;html=1;labelBackgroundColor=default;strokeColor=default;strokeWidth=1.5;align=center;verticalAlign=middle;fontFamily=Helvetica;fontSize=11;fontColor=default;endArrow=classic;" parent="WIyWlLk6GJQsqaUBKTNV-1" source="3eJRVGEnP6KMk6OrLx9T-107" target="3eJRVGEnP6KMk6OrLx9T-113" edge="1">
          <mxGeometry relative="1" as="geometry" />
        </mxCell>
        <mxCell id="3eJRVGEnP6KMk6OrLx9T-107" value="请求CIS全局ID服务获取唯一id" style="whiteSpace=wrap;html=1;fillColor=#d5e8d4;strokeColor=#82b366;" parent="WIyWlLk6GJQsqaUBKTNV-1" vertex="1">
          <mxGeometry x="-470" y="3650" width="120" height="60" as="geometry" />
        </mxCell>
        <mxCell id="3eJRVGEnP6KMk6OrLx9T-112" style="edgeStyle=orthogonalEdgeStyle;shape=connector;curved=0;rounded=1;orthogonalLoop=1;jettySize=auto;html=1;entryX=1;entryY=0.5;entryDx=0;entryDy=0;labelBackgroundColor=default;strokeColor=default;strokeWidth=1.5;align=center;verticalAlign=middle;fontFamily=Helvetica;fontSize=11;fontColor=default;endArrow=classic;" parent="WIyWlLk6GJQsqaUBKTNV-1" source="3eJRVGEnP6KMk6OrLx9T-110" target="3eJRVGEnP6KMk6OrLx9T-74" edge="1">
          <mxGeometry relative="1" as="geometry">
            <Array as="points">
              <mxPoint x="690" y="3680" />
              <mxPoint x="690" y="2320" />
            </Array>
          </mxGeometry>
        </mxCell>
        <mxCell id="3eJRVGEnP6KMk6OrLx9T-110" value="请求失败，重新加入激活对垒" style="whiteSpace=wrap;html=1;fillColor=#d5e8d4;strokeColor=#82b366;" parent="WIyWlLk6GJQsqaUBKTNV-1" vertex="1">
          <mxGeometry x="-270" y="3650" width="120" height="60" as="geometry" />
        </mxCell>
        <mxCell id="3eJRVGEnP6KMk6OrLx9T-116" value="" style="edgeStyle=orthogonalEdgeStyle;shape=connector;curved=0;rounded=1;orthogonalLoop=1;jettySize=auto;html=1;labelBackgroundColor=default;strokeColor=default;strokeWidth=1.5;align=center;verticalAlign=middle;fontFamily=Helvetica;fontSize=11;fontColor=default;endArrow=classic;" parent="WIyWlLk6GJQsqaUBKTNV-1" source="3eJRVGEnP6KMk6OrLx9T-113" target="3eJRVGEnP6KMk6OrLx9T-115" edge="1">
          <mxGeometry relative="1" as="geometry" />
        </mxCell>
        <mxCell id="3eJRVGEnP6KMk6OrLx9T-113" value="写入Activation表数据，status为NONE" style="whiteSpace=wrap;html=1;fillColor=#d5e8d4;strokeColor=#82b366;" parent="WIyWlLk6GJQsqaUBKTNV-1" vertex="1">
          <mxGeometry x="-470" y="3780" width="120" height="60" as="geometry" />
        </mxCell>
        <mxCell id="3eJRVGEnP6KMk6OrLx9T-122" value="" style="edgeStyle=orthogonalEdgeStyle;shape=connector;curved=0;rounded=1;orthogonalLoop=1;jettySize=auto;html=1;labelBackgroundColor=default;strokeColor=default;strokeWidth=1.5;align=center;verticalAlign=middle;fontFamily=Helvetica;fontSize=11;fontColor=default;endArrow=classic;" parent="WIyWlLk6GJQsqaUBKTNV-1" source="3eJRVGEnP6KMk6OrLx9T-115" target="3eJRVGEnP6KMk6OrLx9T-121" edge="1">
          <mxGeometry relative="1" as="geometry" />
        </mxCell>
        <mxCell id="UDWsFxjrf3_HS-iiei2p-20" style="edgeStyle=orthogonalEdgeStyle;shape=connector;curved=0;rounded=1;orthogonalLoop=1;jettySize=auto;html=1;strokeColor=default;align=center;verticalAlign=middle;fontFamily=Helvetica;fontSize=11;fontColor=default;labelBackgroundColor=default;endArrow=classic;entryX=0;entryY=0.5;entryDx=0;entryDy=0;entryPerimeter=0;" edge="1" parent="WIyWlLk6GJQsqaUBKTNV-1" source="3eJRVGEnP6KMk6OrLx9T-115" target="UDWsFxjrf3_HS-iiei2p-22">
          <mxGeometry relative="1" as="geometry">
            <mxPoint x="-385" y="868" as="targetPoint" />
            <Array as="points">
              <mxPoint x="-710" y="3940" />
              <mxPoint x="-710" y="840" />
              <mxPoint x="-380" y="840" />
              <mxPoint x="-380" y="841" />
            </Array>
          </mxGeometry>
        </mxCell>
        <mxCell id="UDWsFxjrf3_HS-iiei2p-21" value="风控授信结果消息写入mq" style="edgeLabel;html=1;align=center;verticalAlign=middle;resizable=0;points=[];fontFamily=Helvetica;fontSize=13;fontColor=default;labelBackgroundColor=default;" vertex="1" connectable="0" parent="UDWsFxjrf3_HS-iiei2p-20">
          <mxGeometry x="0.9006" y="2" relative="1" as="geometry">
            <mxPoint x="-24" y="1" as="offset" />
          </mxGeometry>
        </mxCell>
        <mxCell id="3eJRVGEnP6KMk6OrLx9T-115" value="请求风控&lt;span style=&quot;color: rgb(6, 125, 23); font-family: &amp;quot;JetBrains Mono&amp;quot;, monospace; font-size: 11.3pt;&quot;&gt;credit/v2/apply接口发起授信&lt;/span&gt;" style="whiteSpace=wrap;html=1;fillColor=#d5e8d4;strokeColor=#82b366;" parent="WIyWlLk6GJQsqaUBKTNV-1" vertex="1">
          <mxGeometry x="-495" y="3910" width="170" height="60" as="geometry" />
        </mxCell>
        <mxCell id="3eJRVGEnP6KMk6OrLx9T-121" value="Activation表status置为SUCCESS" style="whiteSpace=wrap;fillColor=#d5e8d4;strokeColor=#82b366;" parent="WIyWlLk6GJQsqaUBKTNV-1" vertex="1">
          <mxGeometry x="-470" y="4040" width="120" height="60" as="geometry" />
        </mxCell>
        <mxCell id="3eJRVGEnP6KMk6OrLx9T-125" style="edgeStyle=orthogonalEdgeStyle;shape=connector;curved=0;rounded=1;orthogonalLoop=1;jettySize=auto;html=1;labelBackgroundColor=default;strokeColor=default;strokeWidth=1.5;align=center;verticalAlign=middle;fontFamily=Helvetica;fontSize=11;fontColor=default;endArrow=classic;" parent="WIyWlLk6GJQsqaUBKTNV-1" source="3eJRVGEnP6KMk6OrLx9T-123" edge="1">
          <mxGeometry relative="1" as="geometry">
            <mxPoint x="750" y="1550" as="targetPoint" />
          </mxGeometry>
        </mxCell>
        <mxCell id="3eJRVGEnP6KMk6OrLx9T-123" value="订单激活状态为waiting" style="whiteSpace=wrap;fillColor=#d5e8d4;strokeColor=#82b366;strokeWidth=2;" parent="WIyWlLk6GJQsqaUBKTNV-1" vertex="1">
          <mxGeometry x="690" y="1430" width="120" height="60" as="geometry" />
        </mxCell>
        <mxCell id="3eJRVGEnP6KMk6OrLx9T-126" value="组装【订单审批中】的回调数据" style="whiteSpace=wrap;fillColor=#e1d5e7;strokeColor=#9673a6;strokeWidth=2;" parent="WIyWlLk6GJQsqaUBKTNV-1" vertex="1">
          <mxGeometry x="690" y="1550" width="120" height="60" as="geometry" />
        </mxCell>
        <mxCell id="3eJRVGEnP6KMk6OrLx9T-130" value="" style="edgeStyle=orthogonalEdgeStyle;shape=connector;curved=0;rounded=1;orthogonalLoop=1;jettySize=auto;html=1;labelBackgroundColor=default;strokeColor=default;strokeWidth=1.5;align=center;verticalAlign=middle;fontFamily=Helvetica;fontSize=11;fontColor=default;endArrow=classic;" parent="WIyWlLk6GJQsqaUBKTNV-1" source="3eJRVGEnP6KMk6OrLx9T-127" target="3eJRVGEnP6KMk6OrLx9T-129" edge="1">
          <mxGeometry relative="1" as="geometry" />
        </mxCell>
        <mxCell id="3eJRVGEnP6KMk6OrLx9T-127" value="订单激活状态为failed" style="whiteSpace=wrap;fillColor=#d5e8d4;strokeColor=#82b366;strokeWidth=2;" parent="WIyWlLk6GJQsqaUBKTNV-1" vertex="1">
          <mxGeometry x="1050" y="1430" width="120" height="60" as="geometry" />
        </mxCell>
        <mxCell id="3eJRVGEnP6KMk6OrLx9T-132" value="" style="edgeStyle=orthogonalEdgeStyle;shape=connector;curved=0;rounded=1;orthogonalLoop=1;jettySize=auto;html=1;labelBackgroundColor=default;strokeColor=default;strokeWidth=1.5;align=center;verticalAlign=middle;fontFamily=Helvetica;fontSize=11;fontColor=default;endArrow=classic;" parent="WIyWlLk6GJQsqaUBKTNV-1" source="3eJRVGEnP6KMk6OrLx9T-129" target="3eJRVGEnP6KMk6OrLx9T-131" edge="1">
          <mxGeometry relative="1" as="geometry" />
        </mxCell>
        <mxCell id="3eJRVGEnP6KMk6OrLx9T-133" value="是" style="edgeLabel;html=1;align=center;verticalAlign=middle;resizable=0;points=[];fontSize=12;fontFamily=Helvetica;fontColor=default;" parent="3eJRVGEnP6KMk6OrLx9T-132" vertex="1" connectable="0">
          <mxGeometry y="2" relative="1" as="geometry">
            <mxPoint as="offset" />
          </mxGeometry>
        </mxCell>
        <mxCell id="3eJRVGEnP6KMk6OrLx9T-129" value="cash_out_apply的apply_status不是failed 并且 风控产品有数据" style="rhombus;whiteSpace=wrap;html=1;fillColor=#d5e8d4;strokeColor=#82b366;strokeWidth=2;" parent="WIyWlLk6GJQsqaUBKTNV-1" vertex="1">
          <mxGeometry x="1015" y="1560" width="190" height="80" as="geometry" />
        </mxCell>
        <mxCell id="3eJRVGEnP6KMk6OrLx9T-135" value="" style="edgeStyle=orthogonalEdgeStyle;shape=connector;curved=0;rounded=1;orthogonalLoop=1;jettySize=auto;html=1;labelBackgroundColor=default;strokeColor=default;strokeWidth=1.5;align=center;verticalAlign=middle;fontFamily=Helvetica;fontSize=11;fontColor=default;endArrow=classic;" parent="WIyWlLk6GJQsqaUBKTNV-1" source="3eJRVGEnP6KMk6OrLx9T-131" target="3eJRVGEnP6KMk6OrLx9T-134" edge="1">
          <mxGeometry relative="1" as="geometry" />
        </mxCell>
        <mxCell id="3eJRVGEnP6KMk6OrLx9T-131" value="根据flowid请求CIS获取OCR识别记录" style="whiteSpace=wrap;html=1;fillColor=#d5e8d4;strokeColor=#82b366;strokeWidth=2;" parent="WIyWlLk6GJQsqaUBKTNV-1" vertex="1">
          <mxGeometry x="1050" y="1700" width="120" height="60" as="geometry" />
        </mxCell>
        <mxCell id="3eJRVGEnP6KMk6OrLx9T-137" value="" style="edgeStyle=orthogonalEdgeStyle;shape=connector;curved=0;rounded=1;orthogonalLoop=1;jettySize=auto;html=1;labelBackgroundColor=default;strokeColor=default;strokeWidth=1.5;align=center;verticalAlign=middle;fontFamily=Helvetica;fontSize=11;fontColor=default;endArrow=classic;" parent="WIyWlLk6GJQsqaUBKTNV-1" source="3eJRVGEnP6KMk6OrLx9T-134" target="3eJRVGEnP6KMk6OrLx9T-136" edge="1">
          <mxGeometry relative="1" as="geometry" />
        </mxCell>
        <mxCell id="3eJRVGEnP6KMk6OrLx9T-138" value="是" style="edgeLabel;html=1;align=center;verticalAlign=middle;resizable=0;points=[];fontSize=12;fontFamily=Helvetica;fontColor=default;" parent="3eJRVGEnP6KMk6OrLx9T-137" vertex="1" connectable="0">
          <mxGeometry x="0.0222" y="-3" relative="1" as="geometry">
            <mxPoint as="offset" />
          </mxGeometry>
        </mxCell>
        <mxCell id="3eJRVGEnP6KMk6OrLx9T-134" value="数据存在且状态为NONE" style="rhombus;whiteSpace=wrap;html=1;fillColor=#d5e8d4;strokeColor=#82b366;strokeWidth=2;" parent="WIyWlLk6GJQsqaUBKTNV-1" vertex="1">
          <mxGeometry x="1010" y="1820" width="200" height="80" as="geometry" />
        </mxCell>
        <mxCell id="3eJRVGEnP6KMk6OrLx9T-140" value="" style="edgeStyle=orthogonalEdgeStyle;shape=connector;curved=0;rounded=1;orthogonalLoop=1;jettySize=auto;html=1;labelBackgroundColor=default;strokeColor=default;strokeWidth=1.5;align=center;verticalAlign=middle;fontFamily=Helvetica;fontSize=11;fontColor=default;endArrow=classic;" parent="WIyWlLk6GJQsqaUBKTNV-1" source="3eJRVGEnP6KMk6OrLx9T-136" target="3eJRVGEnP6KMk6OrLx9T-139" edge="1">
          <mxGeometry relative="1" as="geometry" />
        </mxCell>
        <mxCell id="3eJRVGEnP6KMk6OrLx9T-148" style="edgeStyle=orthogonalEdgeStyle;shape=connector;curved=0;rounded=1;orthogonalLoop=1;jettySize=auto;html=1;labelBackgroundColor=default;strokeColor=default;strokeWidth=1.5;align=center;verticalAlign=middle;fontFamily=Helvetica;fontSize=11;fontColor=default;endArrow=classic;" parent="WIyWlLk6GJQsqaUBKTNV-1" source="3eJRVGEnP6KMk6OrLx9T-136" edge="1">
          <mxGeometry relative="1" as="geometry">
            <mxPoint x="1110" y="2270" as="targetPoint" />
          </mxGeometry>
        </mxCell>
        <mxCell id="3eJRVGEnP6KMk6OrLx9T-136" value="查询challengeItem/get接口获取已上报挑战项数据" style="whiteSpace=wrap;html=1;fillColor=#d5e8d4;strokeColor=#82b366;strokeWidth=2;" parent="WIyWlLk6GJQsqaUBKTNV-1" vertex="1">
          <mxGeometry x="1050" y="1990" width="120" height="60" as="geometry" />
        </mxCell>
        <mxCell id="3eJRVGEnP6KMk6OrLx9T-142" value="" style="edgeStyle=orthogonalEdgeStyle;shape=connector;curved=0;rounded=1;orthogonalLoop=1;jettySize=auto;html=1;labelBackgroundColor=default;strokeColor=default;strokeWidth=1.5;align=center;verticalAlign=middle;fontFamily=Helvetica;fontSize=11;fontColor=default;endArrow=classic;" parent="WIyWlLk6GJQsqaUBKTNV-1" source="3eJRVGEnP6KMk6OrLx9T-139" target="3eJRVGEnP6KMk6OrLx9T-141" edge="1">
          <mxGeometry relative="1" as="geometry" />
        </mxCell>
        <mxCell id="3eJRVGEnP6KMk6OrLx9T-143" value="否" style="edgeLabel;html=1;align=center;verticalAlign=middle;resizable=0;points=[];fontSize=12;fontFamily=Helvetica;fontColor=default;" parent="3eJRVGEnP6KMk6OrLx9T-142" vertex="1" connectable="0">
          <mxGeometry x="-0.1556" y="-2" relative="1" as="geometry">
            <mxPoint as="offset" />
          </mxGeometry>
        </mxCell>
        <mxCell id="3eJRVGEnP6KMk6OrLx9T-145" value="" style="edgeStyle=orthogonalEdgeStyle;shape=connector;curved=0;rounded=1;orthogonalLoop=1;jettySize=auto;html=1;labelBackgroundColor=default;strokeColor=default;strokeWidth=1.5;align=center;verticalAlign=middle;fontFamily=Helvetica;fontSize=11;fontColor=default;endArrow=classic;" parent="WIyWlLk6GJQsqaUBKTNV-1" source="3eJRVGEnP6KMk6OrLx9T-139" target="3eJRVGEnP6KMk6OrLx9T-144" edge="1">
          <mxGeometry relative="1" as="geometry" />
        </mxCell>
        <mxCell id="3eJRVGEnP6KMk6OrLx9T-146" value="是" style="edgeLabel;html=1;align=center;verticalAlign=middle;resizable=0;points=[];fontSize=12;fontFamily=Helvetica;fontColor=default;" parent="3eJRVGEnP6KMk6OrLx9T-145" vertex="1" connectable="0">
          <mxGeometry x="-0.1556" y="-1" relative="1" as="geometry">
            <mxPoint as="offset" />
          </mxGeometry>
        </mxCell>
        <mxCell id="3eJRVGEnP6KMk6OrLx9T-139" value="是否有激活次数" style="rhombus;whiteSpace=wrap;html=1;fillColor=#d5e8d4;strokeColor=#82b366;strokeWidth=2;" parent="WIyWlLk6GJQsqaUBKTNV-1" vertex="1">
          <mxGeometry x="1270" y="1980" width="140" height="80" as="geometry" />
        </mxCell>
        <mxCell id="3eJRVGEnP6KMk6OrLx9T-141" value="cash_out_apply的conclusion_failed_status置为9-没有激活次数" style="whiteSpace=wrap;html=1;fillColor=#d5e8d4;strokeColor=#82b366;strokeWidth=2;" parent="WIyWlLk6GJQsqaUBKTNV-1" vertex="1">
          <mxGeometry x="1500" y="1990" width="180" height="60" as="geometry" />
        </mxCell>
        <mxCell id="3eJRVGEnP6KMk6OrLx9T-147" style="edgeStyle=orthogonalEdgeStyle;shape=connector;curved=0;rounded=1;orthogonalLoop=1;jettySize=auto;html=1;entryX=1;entryY=0.5;entryDx=0;entryDy=0;labelBackgroundColor=default;strokeColor=default;strokeWidth=1.5;align=center;verticalAlign=middle;fontFamily=Helvetica;fontSize=11;fontColor=default;endArrow=classic;" parent="WIyWlLk6GJQsqaUBKTNV-1" source="3eJRVGEnP6KMk6OrLx9T-144" target="3eJRVGEnP6KMk6OrLx9T-21" edge="1">
          <mxGeometry relative="1" as="geometry">
            <Array as="points">
              <mxPoint x="790" y="2180" />
              <mxPoint x="790" y="1740" />
              <mxPoint x="360" y="1740" />
              <mxPoint x="360" y="1460" />
            </Array>
          </mxGeometry>
        </mxCell>
        <mxCell id="3eJRVGEnP6KMk6OrLx9T-144" value="重新发起激活决策" style="whiteSpace=wrap;html=1;fillColor=#d5e8d4;strokeColor=#82b366;strokeWidth=2;" parent="WIyWlLk6GJQsqaUBKTNV-1" vertex="1">
          <mxGeometry x="1280" y="2150" width="120" height="60" as="geometry" />
        </mxCell>
        <mxCell id="3eJRVGEnP6KMk6OrLx9T-151" value="" style="edgeStyle=orthogonalEdgeStyle;shape=connector;curved=0;rounded=1;orthogonalLoop=1;jettySize=auto;html=1;labelBackgroundColor=default;strokeColor=default;strokeWidth=1.5;align=center;verticalAlign=middle;fontFamily=Helvetica;fontSize=11;fontColor=default;endArrow=classic;" parent="WIyWlLk6GJQsqaUBKTNV-1" source="3eJRVGEnP6KMk6OrLx9T-149" target="3eJRVGEnP6KMk6OrLx9T-150" edge="1">
          <mxGeometry relative="1" as="geometry" />
        </mxCell>
        <mxCell id="3eJRVGEnP6KMk6OrLx9T-149" value="API渠道进件激活失败，且非预授信失败用户事件上报" style="whiteSpace=wrap;fillColor=#d5e8d4;strokeColor=#82b366;strokeWidth=2;" parent="WIyWlLk6GJQsqaUBKTNV-1" vertex="1">
          <mxGeometry x="1050" y="2230" width="120" height="60" as="geometry" />
        </mxCell>
        <mxCell id="3eJRVGEnP6KMk6OrLx9T-150" value="组装【授信拒绝】的数据" style="whiteSpace=wrap;fillColor=#d5e8d4;strokeColor=#82b366;strokeWidth=2;" parent="WIyWlLk6GJQsqaUBKTNV-1" vertex="1">
          <mxGeometry x="1050" y="2350" width="120" height="60" as="geometry" />
        </mxCell>
        <mxCell id="3eJRVGEnP6KMk6OrLx9T-154" style="edgeStyle=orthogonalEdgeStyle;shape=connector;curved=0;rounded=1;orthogonalLoop=1;jettySize=auto;html=1;labelBackgroundColor=default;strokeColor=default;strokeWidth=1.5;align=center;verticalAlign=middle;fontFamily=Helvetica;fontSize=11;fontColor=default;endArrow=classic;entryX=0.5;entryY=0;entryDx=0;entryDy=0;" parent="WIyWlLk6GJQsqaUBKTNV-1" source="3eJRVGEnP6KMk6OrLx9T-152" edge="1">
          <mxGeometry relative="1" as="geometry">
            <mxPoint x="1940" y="1520" as="targetPoint" />
          </mxGeometry>
        </mxCell>
        <mxCell id="3eJRVGEnP6KMk6OrLx9T-152" value="订单激活状态为success" style="whiteSpace=wrap;fillColor=#d5e8d4;strokeColor=#82b366;strokeWidth=2;" parent="WIyWlLk6GJQsqaUBKTNV-1" vertex="1">
          <mxGeometry x="1880" y="1410" width="120" height="60" as="geometry" />
        </mxCell>
        <mxCell id="pbYwqyJWvkE5BdoGc-Tp-5" style="edgeStyle=orthogonalEdgeStyle;shape=connector;curved=0;rounded=1;orthogonalLoop=1;jettySize=auto;html=1;labelBackgroundColor=default;strokeColor=#788AA3;strokeWidth=1.5;align=center;verticalAlign=middle;fontFamily=Helvetica;fontSize=11;fontColor=#46495D;endArrow=classic;fillColor=#B2C9AB;entryX=0;entryY=0.5;entryDx=0;entryDy=0;" parent="WIyWlLk6GJQsqaUBKTNV-1" source="pbYwqyJWvkE5BdoGc-Tp-2" target="pbYwqyJWvkE5BdoGc-Tp-4" edge="1">
          <mxGeometry relative="1" as="geometry">
            <mxPoint x="2090" y="1670" as="targetPoint" />
          </mxGeometry>
        </mxCell>
        <mxCell id="pbYwqyJWvkE5BdoGc-Tp-10" value="" style="edgeStyle=orthogonalEdgeStyle;shape=connector;curved=0;rounded=1;orthogonalLoop=1;jettySize=auto;html=1;labelBackgroundColor=default;strokeColor=#788AA3;strokeWidth=1.5;align=center;verticalAlign=middle;fontFamily=Helvetica;fontSize=11;fontColor=#46495D;endArrow=classic;fillColor=#B2C9AB;" parent="WIyWlLk6GJQsqaUBKTNV-1" source="pbYwqyJWvkE5BdoGc-Tp-2" target="pbYwqyJWvkE5BdoGc-Tp-9" edge="1">
          <mxGeometry relative="1" as="geometry" />
        </mxCell>
        <mxCell id="pbYwqyJWvkE5BdoGc-Tp-2" value="查询Application2表是否存在授信记录" style="rhombus;whiteSpace=wrap;html=1;fillColor=#d5e8d4;strokeColor=#82b366;strokeWidth=2;" parent="WIyWlLk6GJQsqaUBKTNV-1" vertex="1">
          <mxGeometry x="1880" y="1630" width="120" height="80" as="geometry" />
        </mxCell>
        <mxCell id="pbYwqyJWvkE5BdoGc-Tp-8" style="edgeStyle=orthogonalEdgeStyle;shape=connector;curved=0;rounded=1;orthogonalLoop=1;jettySize=auto;html=1;entryX=0;entryY=0.5;entryDx=0;entryDy=0;labelBackgroundColor=default;strokeColor=#788AA3;strokeWidth=1.5;align=center;verticalAlign=middle;fontFamily=Helvetica;fontSize=11;fontColor=#46495D;endArrow=classic;fillColor=#B2C9AB;" parent="WIyWlLk6GJQsqaUBKTNV-1" source="pbYwqyJWvkE5BdoGc-Tp-4" target="pbYwqyJWvkE5BdoGc-Tp-7" edge="1">
          <mxGeometry relative="1" as="geometry" />
        </mxCell>
        <mxCell id="pbYwqyJWvkE5BdoGc-Tp-4" value="组装【授信拒绝】的数据" style="whiteSpace=wrap;fillColor=#e1d5e7;strokeColor=#9673a6;strokeWidth=2;" parent="WIyWlLk6GJQsqaUBKTNV-1" vertex="1">
          <mxGeometry x="2080" y="1640" width="120" height="60" as="geometry" />
        </mxCell>
        <mxCell id="pbYwqyJWvkE5BdoGc-Tp-7" value="返回拒绝的数据" style="whiteSpace=wrap;html=1;fillColor=#e1d5e7;strokeColor=#9673a6;strokeWidth=2;" parent="WIyWlLk6GJQsqaUBKTNV-1" vertex="1">
          <mxGeometry x="2280" y="1640" width="120" height="60" as="geometry" />
        </mxCell>
        <mxCell id="pbYwqyJWvkE5BdoGc-Tp-12" value="" style="edgeStyle=orthogonalEdgeStyle;shape=connector;curved=0;rounded=1;orthogonalLoop=1;jettySize=auto;html=1;labelBackgroundColor=default;strokeColor=#788AA3;strokeWidth=1.5;align=center;verticalAlign=middle;fontFamily=Helvetica;fontSize=11;fontColor=#46495D;endArrow=classic;fillColor=#B2C9AB;" parent="WIyWlLk6GJQsqaUBKTNV-1" source="pbYwqyJWvkE5BdoGc-Tp-9" target="pbYwqyJWvkE5BdoGc-Tp-11" edge="1">
          <mxGeometry relative="1" as="geometry" />
        </mxCell>
        <mxCell id="pbYwqyJWvkE5BdoGc-Tp-14" value="" style="edgeStyle=orthogonalEdgeStyle;shape=connector;curved=0;rounded=1;orthogonalLoop=1;jettySize=auto;html=1;labelBackgroundColor=default;strokeColor=#788AA3;strokeWidth=1.5;align=center;verticalAlign=middle;fontFamily=Helvetica;fontSize=11;fontColor=#46495D;endArrow=classic;fillColor=#B2C9AB;" parent="WIyWlLk6GJQsqaUBKTNV-1" source="pbYwqyJWvkE5BdoGc-Tp-9" target="pbYwqyJWvkE5BdoGc-Tp-13" edge="1">
          <mxGeometry relative="1" as="geometry" />
        </mxCell>
        <mxCell id="pbYwqyJWvkE5BdoGc-Tp-9" value="OCR决策结果上报" style="whiteSpace=wrap;html=1;fillColor=#d5e8d4;strokeColor=#82b366;strokeWidth=2;" parent="WIyWlLk6GJQsqaUBKTNV-1" vertex="1">
          <mxGeometry x="1880" y="1780" width="120" height="60" as="geometry" />
        </mxCell>
        <mxCell id="pbYwqyJWvkE5BdoGc-Tp-24" style="edgeStyle=orthogonalEdgeStyle;shape=connector;curved=0;rounded=1;orthogonalLoop=1;jettySize=auto;html=1;entryX=0;entryY=0.5;entryDx=0;entryDy=0;labelBackgroundColor=default;strokeColor=#788AA3;strokeWidth=1.5;align=center;verticalAlign=middle;fontFamily=Helvetica;fontSize=11;fontColor=#46495D;endArrow=classic;fillColor=#B2C9AB;" parent="WIyWlLk6GJQsqaUBKTNV-1" source="pbYwqyJWvkE5BdoGc-Tp-11" target="pbYwqyJWvkE5BdoGc-Tp-20" edge="1">
          <mxGeometry relative="1" as="geometry" />
        </mxCell>
        <mxCell id="pbYwqyJWvkE5BdoGc-Tp-26" value="" style="edgeStyle=orthogonalEdgeStyle;shape=connector;curved=0;rounded=1;orthogonalLoop=1;jettySize=auto;html=1;labelBackgroundColor=default;strokeColor=#788AA3;strokeWidth=1.5;align=center;verticalAlign=middle;fontFamily=Helvetica;fontSize=11;fontColor=#46495D;endArrow=classic;fillColor=#B2C9AB;entryX=0.5;entryY=0;entryDx=0;entryDy=0;" parent="WIyWlLk6GJQsqaUBKTNV-1" source="pbYwqyJWvkE5BdoGc-Tp-11" target="UDWsFxjrf3_HS-iiei2p-10" edge="1">
          <mxGeometry relative="1" as="geometry">
            <mxPoint x="1940" y="2180" as="targetPoint" />
          </mxGeometry>
        </mxCell>
        <mxCell id="pbYwqyJWvkE5BdoGc-Tp-11" value="FACE决策结果上报" style="whiteSpace=wrap;html=1;fillColor=#d5e8d4;strokeColor=#82b366;strokeWidth=2;" parent="WIyWlLk6GJQsqaUBKTNV-1" vertex="1">
          <mxGeometry x="1880" y="2050" width="120" height="60" as="geometry" />
        </mxCell>
        <mxCell id="pbYwqyJWvkE5BdoGc-Tp-16" value="" style="edgeStyle=orthogonalEdgeStyle;shape=connector;curved=0;rounded=1;orthogonalLoop=1;jettySize=auto;html=1;labelBackgroundColor=default;strokeColor=#788AA3;strokeWidth=1.5;align=center;verticalAlign=middle;fontFamily=Helvetica;fontSize=11;fontColor=#46495D;endArrow=classic;fillColor=#B2C9AB;" parent="WIyWlLk6GJQsqaUBKTNV-1" source="pbYwqyJWvkE5BdoGc-Tp-13" target="pbYwqyJWvkE5BdoGc-Tp-15" edge="1">
          <mxGeometry relative="1" as="geometry" />
        </mxCell>
        <mxCell id="UDWsFxjrf3_HS-iiei2p-8" style="edgeStyle=orthogonalEdgeStyle;rounded=1;orthogonalLoop=1;jettySize=auto;html=1;entryX=0.5;entryY=0;entryDx=0;entryDy=0;curved=0;" edge="1" parent="WIyWlLk6GJQsqaUBKTNV-1" source="pbYwqyJWvkE5BdoGc-Tp-13" target="UDWsFxjrf3_HS-iiei2p-7">
          <mxGeometry relative="1" as="geometry" />
        </mxCell>
        <mxCell id="pbYwqyJWvkE5BdoGc-Tp-13" value="通过旷世识别OCR" style="whiteSpace=wrap;html=1;fillColor=#d5e8d4;strokeColor=#82b366;strokeWidth=2;" parent="WIyWlLk6GJQsqaUBKTNV-1" vertex="1">
          <mxGeometry x="2080" y="1780" width="120" height="60" as="geometry" />
        </mxCell>
        <mxCell id="pbYwqyJWvkE5BdoGc-Tp-18" value="" style="edgeStyle=orthogonalEdgeStyle;shape=connector;curved=0;rounded=1;orthogonalLoop=1;jettySize=auto;html=1;labelBackgroundColor=default;strokeColor=#788AA3;strokeWidth=1.5;align=center;verticalAlign=middle;fontFamily=Helvetica;fontSize=11;fontColor=#46495D;endArrow=classic;fillColor=#B2C9AB;" parent="WIyWlLk6GJQsqaUBKTNV-1" source="pbYwqyJWvkE5BdoGc-Tp-15" target="pbYwqyJWvkE5BdoGc-Tp-17" edge="1">
          <mxGeometry relative="1" as="geometry" />
        </mxCell>
        <mxCell id="UDWsFxjrf3_HS-iiei2p-9" style="edgeStyle=orthogonalEdgeStyle;shape=connector;curved=0;rounded=1;orthogonalLoop=1;jettySize=auto;html=1;entryX=0.5;entryY=0;entryDx=0;entryDy=0;strokeColor=default;align=center;verticalAlign=middle;fontFamily=Helvetica;fontSize=11;fontColor=default;labelBackgroundColor=default;endArrow=classic;" edge="1" parent="WIyWlLk6GJQsqaUBKTNV-1" source="pbYwqyJWvkE5BdoGc-Tp-15" target="UDWsFxjrf3_HS-iiei2p-7">
          <mxGeometry relative="1" as="geometry" />
        </mxCell>
        <mxCell id="pbYwqyJWvkE5BdoGc-Tp-15" value="如果旷世识别失败，再通过腾讯识别OCR" style="whiteSpace=wrap;html=1;fillColor=#d5e8d4;strokeColor=#82b366;strokeWidth=2;" parent="WIyWlLk6GJQsqaUBKTNV-1" vertex="1">
          <mxGeometry x="2280" y="1780" width="120" height="60" as="geometry" />
        </mxCell>
        <mxCell id="pbYwqyJWvkE5BdoGc-Tp-17" value="请求CIS保存OCR识别结果" style="whiteSpace=wrap;html=1;fillColor=#d5e8d4;strokeColor=#82b366;strokeWidth=2;" parent="WIyWlLk6GJQsqaUBKTNV-1" vertex="1">
          <mxGeometry x="2480" y="1780" width="120" height="60" as="geometry" />
        </mxCell>
        <mxCell id="pbYwqyJWvkE5BdoGc-Tp-19" value="" style="edgeStyle=orthogonalEdgeStyle;shape=connector;curved=0;rounded=1;orthogonalLoop=1;jettySize=auto;html=1;labelBackgroundColor=default;strokeColor=#788AA3;strokeWidth=1.5;align=center;verticalAlign=middle;fontFamily=Helvetica;fontSize=11;fontColor=#46495D;endArrow=classic;fillColor=#B2C9AB;" parent="WIyWlLk6GJQsqaUBKTNV-1" source="pbYwqyJWvkE5BdoGc-Tp-20" target="pbYwqyJWvkE5BdoGc-Tp-22" edge="1">
          <mxGeometry relative="1" as="geometry" />
        </mxCell>
        <mxCell id="pbYwqyJWvkE5BdoGc-Tp-20" value="调旷世接口" style="whiteSpace=wrap;html=1;fillColor=#d5e8d4;strokeColor=#82b366;strokeWidth=2;" parent="WIyWlLk6GJQsqaUBKTNV-1" vertex="1">
          <mxGeometry x="2080" y="2050" width="120" height="60" as="geometry" />
        </mxCell>
        <mxCell id="pbYwqyJWvkE5BdoGc-Tp-21" value="" style="edgeStyle=orthogonalEdgeStyle;shape=connector;curved=0;rounded=1;orthogonalLoop=1;jettySize=auto;html=1;labelBackgroundColor=default;strokeColor=#788AA3;strokeWidth=1.5;align=center;verticalAlign=middle;fontFamily=Helvetica;fontSize=11;fontColor=#46495D;endArrow=classic;fillColor=#B2C9AB;" parent="WIyWlLk6GJQsqaUBKTNV-1" source="pbYwqyJWvkE5BdoGc-Tp-22" target="pbYwqyJWvkE5BdoGc-Tp-23" edge="1">
          <mxGeometry relative="1" as="geometry" />
        </mxCell>
        <mxCell id="pbYwqyJWvkE5BdoGc-Tp-22" value="兜底调腾讯接口" style="whiteSpace=wrap;html=1;fillColor=#d5e8d4;strokeColor=#82b366;strokeWidth=2;" parent="WIyWlLk6GJQsqaUBKTNV-1" vertex="1">
          <mxGeometry x="2280" y="2050" width="120" height="60" as="geometry" />
        </mxCell>
        <mxCell id="pbYwqyJWvkE5BdoGc-Tp-23" value="请求CIS保存face识别结果" style="whiteSpace=wrap;html=1;fillColor=#d5e8d4;strokeColor=#82b366;strokeWidth=2;" parent="WIyWlLk6GJQsqaUBKTNV-1" vertex="1">
          <mxGeometry x="2480" y="2050" width="120" height="60" as="geometry" />
        </mxCell>
        <mxCell id="pbYwqyJWvkE5BdoGc-Tp-89" value="返回激活成功的数据" style="whiteSpace=wrap;html=1;fillColor=#d5e8d4;strokeColor=#82b366;strokeWidth=2;" parent="WIyWlLk6GJQsqaUBKTNV-1" vertex="1">
          <mxGeometry x="1880" y="2300" width="120" height="60" as="geometry" />
        </mxCell>
        <mxCell id="UDWsFxjrf3_HS-iiei2p-5" value="" style="edgeStyle=orthogonalEdgeStyle;rounded=0;orthogonalLoop=1;jettySize=auto;html=1;" edge="1" parent="WIyWlLk6GJQsqaUBKTNV-1" source="UDWsFxjrf3_HS-iiei2p-3" target="UDWsFxjrf3_HS-iiei2p-4">
          <mxGeometry relative="1" as="geometry" />
        </mxCell>
        <mxCell id="UDWsFxjrf3_HS-iiei2p-6" style="edgeStyle=orthogonalEdgeStyle;rounded=0;orthogonalLoop=1;jettySize=auto;html=1;entryX=0.5;entryY=0;entryDx=0;entryDy=0;" edge="1" parent="WIyWlLk6GJQsqaUBKTNV-1" source="UDWsFxjrf3_HS-iiei2p-3" target="pbYwqyJWvkE5BdoGc-Tp-2">
          <mxGeometry relative="1" as="geometry" />
        </mxCell>
        <mxCell id="UDWsFxjrf3_HS-iiei2p-3" value="绑定person" style="whiteSpace=wrap;fillColor=#d5e8d4;strokeColor=#82b366;strokeWidth=2;" vertex="1" parent="WIyWlLk6GJQsqaUBKTNV-1">
          <mxGeometry x="1880" y="1520" width="120" height="60" as="geometry" />
        </mxCell>
        <mxCell id="UDWsFxjrf3_HS-iiei2p-4" value="当前授信通过的用户号如果没有绑person，则触发绑定person" style="whiteSpace=wrap;html=1;fillColor=#d5e8d4;strokeColor=#82b366;strokeWidth=2;" vertex="1" parent="WIyWlLk6GJQsqaUBKTNV-1">
          <mxGeometry x="2080" y="1520" width="190" height="60" as="geometry" />
        </mxCell>
        <mxCell id="UDWsFxjrf3_HS-iiei2p-7" value="如果正常OCR识别失败，请求CIS获取历史OCR识别通过的数据和当前渠道进件的OCR数据做身份号号和有效期对比，如果一致，则复用历史通过的OCR记录" style="whiteSpace=wrap;html=1;fillColor=#d5e8d4;strokeColor=#82b366;strokeWidth=2;" vertex="1" parent="WIyWlLk6GJQsqaUBKTNV-1">
          <mxGeometry x="2030" y="1940" width="410" height="60" as="geometry" />
        </mxCell>
        <mxCell id="UDWsFxjrf3_HS-iiei2p-12" style="edgeStyle=orthogonalEdgeStyle;shape=connector;curved=0;rounded=1;orthogonalLoop=1;jettySize=auto;html=1;entryX=0.5;entryY=0;entryDx=0;entryDy=0;strokeColor=default;align=center;verticalAlign=middle;fontFamily=Helvetica;fontSize=11;fontColor=default;labelBackgroundColor=default;endArrow=classic;" edge="1" parent="WIyWlLk6GJQsqaUBKTNV-1" source="UDWsFxjrf3_HS-iiei2p-10" target="pbYwqyJWvkE5BdoGc-Tp-89">
          <mxGeometry relative="1" as="geometry" />
        </mxCell>
        <mxCell id="UDWsFxjrf3_HS-iiei2p-10" value="查询借款引擎获取额度、期数数据" style="whiteSpace=wrap;html=1;fillColor=#d5e8d4;strokeColor=#82b366;strokeWidth=2;" vertex="1" parent="WIyWlLk6GJQsqaUBKTNV-1">
          <mxGeometry x="1880" y="2180" width="120" height="60" as="geometry" />
        </mxCell>
        <mxCell id="UDWsFxjrf3_HS-iiei2p-23" style="edgeStyle=orthogonalEdgeStyle;shape=connector;curved=0;rounded=1;orthogonalLoop=1;jettySize=auto;html=1;entryX=0;entryY=0.5;entryDx=0;entryDy=0;strokeColor=default;align=center;verticalAlign=middle;fontFamily=Helvetica;fontSize=11;fontColor=default;labelBackgroundColor=default;endArrow=classic;" edge="1" parent="WIyWlLk6GJQsqaUBKTNV-1" source="UDWsFxjrf3_HS-iiei2p-22" target="3eJRVGEnP6KMk6OrLx9T-0">
          <mxGeometry relative="1" as="geometry" />
        </mxCell>
        <mxCell id="UDWsFxjrf3_HS-iiei2p-24" value="消费风控授信结果消息" style="edgeLabel;html=1;align=center;verticalAlign=middle;resizable=0;points=[];fontFamily=Helvetica;fontSize=13;fontColor=default;labelBackgroundColor=default;" vertex="1" connectable="0" parent="UDWsFxjrf3_HS-iiei2p-23">
          <mxGeometry x="0.2216" y="3" relative="1" as="geometry">
            <mxPoint x="-37" y="3" as="offset" />
          </mxGeometry>
        </mxCell>
        <mxCell id="UDWsFxjrf3_HS-iiei2p-22" value="rocketmq" style="strokeWidth=2;html=1;shape=mxgraph.flowchart.direct_data;whiteSpace=wrap;fillColor=#d5e8d4;strokeColor=#82b366;" vertex="1" parent="WIyWlLk6GJQsqaUBKTNV-1">
          <mxGeometry x="-175" y="811" width="100" height="60" as="geometry" />
        </mxCell>
      </root>
    </mxGraphModel>
  </diagram>
</mxfile>
